<svg width="28" height="30" viewBox="0 0 28 30" fill="none" xmlns="http://www.w3.org/2000/svg">
<path d="M2.08336 18.2547L2.57003 15.3987C3.14603 12.0213 3.43269 10.332 4.57269 9.332C5.71269 8.33333 7.35003 8.33333 10.6234 8.33333H17.378C20.6514 8.33333 22.2887 8.33333 23.4287 9.33333C24.5687 10.3333 24.8554 12.0213 25.4314 15.3987L25.918 18.2547C26.7154 22.928 27.1127 25.264 25.8874 26.7987C24.6607 28.3333 22.394 28.3333 17.8647 28.3333H10.1367C5.60603 28.3333 3.34069 28.3333 2.11403 26.8C0.887361 25.264 1.28736 22.928 2.08336 18.2547Z" stroke="#707070" stroke-width="1.5" stroke-linecap="round" stroke-linejoin="round"/>
<path d="M8 11L8.28667 6.98666C8.39024 5.54212 9.03716 4.19044 10.0972 3.20367C11.1573 2.2169 12.5518 1.6683 14 1.6683C15.4482 1.6683 16.8427 2.2169 17.9028 3.20367C18.9628 4.19044 19.6098 5.54212 19.7133 6.98666L20 11" stroke="#707070" stroke-width="1.5" stroke-linecap="round" stroke-linejoin="round"/>
</svg>
