<svg width="415" height="323" viewBox="0 0 415 323" fill="none" xmlns="http://www.w3.org/2000/svg">
<g clip-path="url(#clip0_1055_1056)">
<path d="M163.789 85.7228C163.599 86.1133 163.439 86.5181 163.312 86.9336L125.998 98.1708L119.09 91.7027L107.958 100.845L119.074 113.483C119.973 114.504 121.178 115.207 122.51 115.485C123.841 115.763 125.227 115.602 126.459 115.027L166.622 96.2601C168.019 97.1844 169.664 97.662 171.339 97.6294C173.013 97.5967 174.639 97.0553 175.998 96.0772C177.357 95.0992 178.386 93.7307 178.948 92.154C179.51 90.5772 179.579 88.8669 179.144 87.2504C178.709 85.6339 177.793 84.188 176.516 83.1048C175.239 82.0217 173.662 81.3527 171.995 81.1869C170.328 81.0211 168.65 81.3662 167.184 82.1765C165.719 82.9867 164.534 84.2237 163.789 85.7228Z" fill="#FFB6B6"/>
<path d="M124.76 98.6254L111.032 110.041C110.641 110.366 110.185 110.602 109.695 110.735C109.204 110.868 108.691 110.894 108.19 110.81C107.688 110.727 107.211 110.537 106.79 110.252C106.369 109.968 106.014 109.596 105.75 109.163L96.4886 93.9672C94.8383 91.9608 94.0512 89.3825 94.3 86.7973C94.5488 84.2121 95.813 81.8309 97.8157 80.1754C99.8184 78.52 102.396 77.7254 104.984 77.9656C107.572 78.2059 109.959 79.4616 111.623 81.4574L124.855 93.2758C125.234 93.6143 125.535 94.0304 125.739 94.4958C125.942 94.9611 126.042 95.4648 126.033 95.9725C126.024 96.4801 125.906 96.9799 125.686 97.4377C125.466 97.8955 125.15 98.3006 124.76 98.6254Z" fill="#3F3D56"/>
<path d="M161.624 288.689L167.599 284.886C167.874 281.547 167.959 278.195 167.856 274.846L164.757 275.637L167.816 273.69C167.647 269.55 167.273 266.819 167.273 266.819C167.273 266.819 155.192 274.66 147.487 285.289L148.8 294.277L145.667 287.991C144.866 289.273 144.146 290.604 143.511 291.977C137.163 305.834 136.546 319.14 142.134 321.695C147.721 324.251 157.397 315.089 163.745 301.231C165.66 296.774 166.88 292.051 167.362 287.224L161.624 288.689Z" fill="#E6E6E6"/>
<path d="M173.898 302.065L180.98 301.895C182.943 299.178 184.75 296.353 186.394 293.433L183.331 292.51L186.958 292.423C188.955 288.792 190.047 286.261 190.047 286.261C190.047 286.261 175.649 286.733 163.555 291.852L160.03 300.225L160.599 293.226C159.25 293.909 157.945 294.677 156.692 295.524C144.089 304.108 136.678 315.179 140.139 320.253C143.6 325.326 156.622 322.481 169.225 313.897C173.17 311.071 176.658 307.657 179.568 303.775L173.898 302.065Z" fill="#E6E6E6"/>
<path d="M132.038 314.562L139.77 314.562L142.671 284.509L132.037 284.761L132.038 314.562Z" fill="#FFB6B6"/>
<path d="M130.066 312.039L145.294 312.039C147.867 312.039 150.336 313.061 152.156 314.879C153.976 316.697 154.999 319.164 154.999 321.735V322.05L130.066 322.051L130.066 312.039Z" fill="#2F2E41"/>
<path d="M40.8145 292.259L45.886 298.091L70.8128 281.321L63.3276 272.713L40.8145 292.259Z" fill="#FFB6B6"/>
<path d="M41.4263 289.117L51.4141 300.602C53.102 302.544 53.9493 305.076 53.7692 307.641C53.589 310.207 52.3963 312.596 50.4536 314.282L50.2156 314.489L33.8628 295.683L41.4263 289.117Z" fill="#2F2E41"/>
<path d="M0.751208 323H211.593C211.792 323 211.983 322.921 212.124 322.78C212.265 322.639 212.344 322.449 212.344 322.25C212.344 322.051 212.265 321.86 212.124 321.719C211.983 321.578 211.792 321.499 211.593 321.499H0.751208C0.652406 321.499 0.554511 321.518 0.463147 321.556C0.371784 321.593 0.288744 321.649 0.218779 321.718C0.148814 321.788 0.0933005 321.871 0.0554242 321.962C0.0175478 322.053 -0.00195312 322.151 -0.00195312 322.25C-0.00195312 322.348 0.0175478 322.446 0.0554242 322.537C0.0933005 322.628 0.148814 322.711 0.218779 322.781C0.288744 322.851 0.371784 322.906 0.463147 322.943C0.554511 322.981 0.652406 323 0.751208 323Z" fill="#CACACA"/>
<path d="M115.05 243.822L131.319 304.046H143.933L141.162 238.181L133.849 174.009L107.287 172.599L115.05 243.822Z" fill="#2F2E41"/>
<path d="M86.8203 174.009C86.8203 174.009 85.4088 183.177 91.0547 193.049C96.7006 202.922 93.1719 236.065 93.1719 236.065L45.5425 283.879C45.5425 283.879 52.9447 296.711 56.4734 296.005C60.0021 295.3 115.756 250.169 115.756 250.169L133.849 176.83L86.8203 174.009Z" fill="#2F2E41"/>
<path d="M113.083 67.2574C122.047 67.2574 129.315 59.9959 129.315 51.0383C129.315 42.0807 122.047 34.8191 113.083 34.8191C104.118 34.8191 96.8506 42.0807 96.8506 51.0383C96.8506 59.9959 104.118 67.2574 113.083 67.2574Z" fill="#FFB6B6"/>
<path d="M112.397 76.5414C112.397 76.5414 93.4762 69.3842 93.4762 71.4997C93.4762 73.6152 74.8226 91.503 79.0571 114.774C83.2915 138.045 88.2317 149.328 86.1145 162.021C83.9972 174.714 85.4087 177.535 85.4087 177.535C85.4087 177.535 134.555 181.766 135.261 176.83C135.966 171.894 133.211 164.365 133.211 162.25C133.211 160.134 113.71 81.9854 112.397 76.5414Z" fill="#3F3D56"/>
<path d="M105.736 60.7843C107.05 60.09 108.576 59.9469 109.999 59.5154C115.087 57.9716 118.496 52.2236 117.408 47.0222C117.207 46.355 117.117 45.6595 117.141 44.9631C117.331 43.4226 118.909 42.4286 120.421 42.0757C121.934 41.7227 123.544 41.774 124.989 41.2064C127.222 40.33 128.705 38.0376 129.026 35.6626C129.257 33.2582 128.721 30.8424 127.495 28.7606L126.949 30.3317C126.115 29.6269 125.497 28.7024 125.163 27.6636C124.542 27.7679 123.959 28.0297 123.468 28.424C122.977 28.8183 122.596 29.3318 122.361 29.9155C121.484 30.4323 121.357 28.31 120.389 27.9969C119.963 27.9438 119.532 28.05 119.179 28.295C117.227 29.2047 114.959 28.4269 112.865 27.9226C109.239 27.0535 105.459 27.049 101.831 27.9096C99.4202 28.4841 97.0343 29.4845 95.3094 31.2623C93.9604 32.7927 92.924 34.5721 92.2588 36.5002C90.4088 41.1523 89.1867 46.1861 89.7974 51.1547C90.306 55.2206 92.0083 59.0449 94.6897 62.1451C96.0865 63.7532 100.644 69.3633 103.143 68.4069C106.282 67.205 102.036 62.7387 105.736 60.7843Z" fill="#2F2E41"/>
<path opacity="0.2" d="M133.272 201.472L114.7 250.127L115.638 250.484L134.21 201.83L133.272 201.472Z" fill="black"/>
<path d="M173.362 78.4326C172.181 78.4339 171.048 78.9035 170.213 79.7382C169.378 80.5729 168.908 81.7047 168.906 82.8852V132.383C168.908 133.563 169.378 134.695 170.213 135.53C171.048 136.364 172.181 136.834 173.362 136.835H410.544C411.726 136.834 412.858 136.364 413.694 135.53C414.529 134.695 414.999 133.563 415 132.383V82.8852C414.999 81.7047 414.529 80.573 413.694 79.7382C412.858 78.9035 411.726 78.434 410.544 78.4326L173.362 78.4326Z" fill="#E6E6E6"/>
<path d="M174.964 81.9046C174.279 81.9053 173.623 82.1775 173.138 82.6615C172.654 83.1455 172.381 83.8017 172.38 84.4862V130.782C172.381 131.466 172.654 132.122 173.138 132.606C173.623 133.09 174.279 133.363 174.964 133.363H408.942C409.627 133.363 410.283 133.09 410.767 132.606C411.252 132.122 411.524 131.466 411.525 130.782V84.4862C411.524 83.8018 411.252 83.1456 410.767 82.6616C410.283 82.1776 409.627 81.9054 408.942 81.9046H174.964Z" fill="white"/>
<path d="M394.251 120.668C395.361 120.666 396.426 120.223 397.21 119.438C397.995 118.653 398.437 117.589 398.438 116.479C398.44 115.37 398.001 114.305 397.218 113.517C396.436 112.73 395.373 112.285 394.262 112.279C394.258 112.279 394.255 112.279 394.251 112.279H196.347C195.237 112.284 194.174 112.728 193.39 113.514C192.606 114.3 192.167 115.364 192.167 116.474C192.167 117.583 192.606 118.648 193.39 119.434C194.174 120.22 195.237 120.664 196.347 120.668H394.251Z" fill="#E6E6E6"/>
<path d="M281.506 102.445C282.058 102.446 282.604 102.338 283.114 102.127C283.624 101.917 284.087 101.608 284.478 101.218C284.868 100.829 285.178 100.366 285.389 99.8568C285.6 99.3475 285.709 98.8017 285.709 98.2504C285.709 97.6991 285.6 97.1532 285.389 96.644C285.178 96.1347 284.868 95.6721 284.478 95.2825C284.087 94.8929 283.624 94.5841 283.114 94.3736C282.604 94.1631 282.058 94.0551 281.506 94.0558H196.348C195.796 94.0551 195.249 94.1631 194.74 94.3736C194.23 94.5841 193.766 94.8929 193.376 95.2825C192.986 95.6721 192.676 96.1347 192.465 96.644C192.253 97.1532 192.145 97.6991 192.145 98.2504C192.145 98.8017 192.253 99.3475 192.465 99.8568C192.676 100.366 192.986 100.829 193.376 101.218C193.766 101.608 194.23 101.917 194.74 102.127C195.249 102.338 195.796 102.446 196.348 102.445H281.506Z" fill="#6C63FF"/>
<path d="M208.028 173.937C207.192 173.938 206.39 174.27 205.799 174.861C205.208 175.452 204.875 176.253 204.875 177.088V212.117C204.875 212.952 205.208 213.753 205.799 214.344C206.39 214.935 207.192 215.267 208.028 215.268H375.878C376.714 215.267 377.516 214.935 378.107 214.344C378.698 213.753 379.031 212.952 379.032 212.117V177.088C379.031 176.253 378.698 175.452 378.107 174.861C377.516 174.27 376.714 173.938 375.878 173.937H208.028Z" fill="#E6E6E6"/>
<path d="M209.162 176.394C208.677 176.395 208.212 176.587 207.869 176.93C207.526 177.272 207.334 177.737 207.333 178.221V210.984C207.334 211.468 207.526 211.933 207.869 212.275C208.212 212.618 208.677 212.81 209.162 212.811H374.744C375.229 212.81 375.693 212.618 376.036 212.275C376.379 211.933 376.572 211.468 376.572 210.984V178.221C376.572 177.737 376.379 177.272 376.036 176.93C375.693 176.587 375.229 176.395 374.744 176.394H209.162Z" fill="white"/>
<path d="M364.348 203.827C365.136 203.827 365.891 203.516 366.449 202.96C367.006 202.404 367.32 201.649 367.321 200.862C367.322 200.075 367.011 199.32 366.455 198.763C365.898 198.205 365.144 197.891 364.356 197.89C364.353 197.89 364.351 197.89 364.348 197.89H224.295C223.507 197.891 222.753 198.204 222.197 198.761C221.641 199.317 221.328 200.072 221.328 200.858C221.328 201.645 221.641 202.399 222.197 202.956C222.753 203.512 223.507 203.826 224.295 203.827H364.348Z" fill="#E6E6E6"/>
<path d="M284.56 190.93C284.95 190.931 285.337 190.855 285.698 190.706C286.059 190.557 286.387 190.338 286.663 190.062C286.94 189.787 287.159 189.459 287.308 189.099C287.458 188.738 287.535 188.352 287.535 187.962C287.535 187.572 287.458 187.185 287.308 186.825C287.159 186.464 286.94 186.137 286.663 185.861C286.387 185.586 286.059 185.367 285.698 185.218C285.337 185.069 284.95 184.993 284.56 184.993H224.294C223.904 184.993 223.517 185.069 223.156 185.218C222.795 185.367 222.467 185.586 222.191 185.861C221.915 186.137 221.695 186.464 221.546 186.825C221.396 187.185 221.319 187.572 221.319 187.962C221.319 188.352 221.396 188.738 221.546 189.099C221.695 189.459 221.915 189.787 222.191 190.062C222.467 190.338 222.795 190.557 223.156 190.706C223.517 190.855 223.904 190.931 224.294 190.93H284.56Z" fill="#E4E4E4"/>
<path d="M208.028 0C207.192 0.000980708 206.39 0.33328 205.799 0.924001C205.208 1.51472 204.875 2.31563 204.875 3.15104V38.1798C204.875 39.0152 205.208 39.8161 205.799 40.4069C206.39 40.9976 207.192 41.3299 208.028 41.3309H375.878C376.714 41.3299 377.516 40.9976 378.107 40.4069C378.698 39.8161 379.031 39.0152 379.032 38.1798V3.15104C379.031 2.31563 378.698 1.51472 378.107 0.924001C377.516 0.33328 376.714 0.000980708 375.878 0H208.028Z" fill="#E6E6E6"/>
<path d="M209.162 2.45712C208.677 2.45761 208.212 2.65023 207.869 2.99273C207.526 3.33523 207.334 3.79963 207.333 4.28405V37.0468C207.334 37.5312 207.526 37.9956 207.869 38.3381C208.212 38.6806 208.677 38.8732 209.162 38.8737H374.744C375.229 38.8732 375.693 38.6805 376.036 38.338C376.379 37.9955 376.572 37.5311 376.572 37.0468V4.28405C376.572 3.79971 376.379 3.33532 376.036 2.99281C375.693 2.6503 375.229 2.45765 374.744 2.45712H209.162Z" fill="white"/>
<path d="M364.348 29.8897C365.136 29.8903 365.891 29.5784 366.449 29.0225C367.006 28.4666 367.32 27.7122 367.321 26.9252C367.322 26.1382 367.011 25.383 366.455 24.8256C365.898 24.2682 365.144 23.9542 364.356 23.9527C364.353 23.9527 364.351 23.9527 364.348 23.9527H224.295C223.507 23.9539 222.753 24.2671 222.197 24.8237C221.641 25.3803 221.328 26.1347 221.328 26.9212C221.328 27.7077 221.641 28.4621 222.197 29.0187C222.753 29.5753 223.507 29.8885 224.295 29.8897H364.348Z" fill="#E6E6E6"/>
<path d="M284.56 16.9933C284.95 16.9938 285.337 16.9175 285.698 16.7685C286.059 16.6196 286.387 16.401 286.663 16.1253C286.94 15.8496 287.159 15.5222 287.308 15.1618C287.458 14.8013 287.535 14.415 287.535 14.0248C287.535 13.6346 287.458 13.2482 287.308 12.8878C287.159 12.5274 286.94 12.1999 286.663 11.9242C286.387 11.6485 286.059 11.4299 285.698 11.281C285.337 11.1321 284.95 11.0557 284.56 11.0563H224.294C223.904 11.0557 223.517 11.1321 223.156 11.281C222.795 11.4299 222.467 11.6485 222.191 11.9242C221.915 12.1999 221.695 12.5274 221.546 12.8878C221.396 13.2482 221.319 13.6346 221.319 14.0248C221.319 14.415 221.396 14.8013 221.546 15.1618C221.695 15.5222 221.915 15.8496 222.191 16.1253C222.467 16.401 222.795 16.6196 223.156 16.7685C223.517 16.9175 223.904 16.9938 224.294 16.9933H284.56Z" fill="#E4E4E4"/>
<path d="M158.596 114.139C158.282 114.44 157.992 114.765 157.729 115.111L118.827 112.785L114.578 104.332L100.972 109.072L107.038 124.768C107.529 126.036 108.417 127.111 109.571 127.831C110.724 128.552 112.081 128.879 113.436 128.764L157.614 125.006C158.605 126.355 159.984 127.371 161.567 127.918C163.15 128.465 164.862 128.517 166.476 128.068C168.09 127.619 169.528 126.69 170.6 125.404C171.673 124.118 172.328 122.537 172.478 120.87C172.629 119.203 172.268 117.529 171.444 116.072C170.62 114.615 169.371 113.443 167.864 112.713C166.357 111.982 164.663 111.727 163.007 111.982C161.352 112.237 159.813 112.989 158.596 114.139Z" fill="#FFB6B6"/>
<path d="M117.508 112.785L100.68 118.763C100.201 118.933 99.6914 118.998 99.1852 118.953C98.679 118.908 98.1884 118.755 97.7467 118.504C97.3051 118.253 96.9228 117.91 96.6258 117.498C96.3289 117.086 96.1244 116.615 96.0261 116.116L92.5846 98.6604C91.7293 96.2082 91.8818 93.5171 93.0085 91.177C94.1352 88.8368 96.1444 87.0384 98.5957 86.1756C101.047 85.3129 103.741 85.4563 106.086 86.5743C108.432 87.6923 110.239 89.6939 111.11 92.1404L119.446 107.797C119.684 108.245 119.823 108.74 119.853 109.247C119.883 109.753 119.804 110.261 119.62 110.734C119.436 111.208 119.152 111.636 118.788 111.99C118.423 112.343 117.987 112.615 117.508 112.785Z" fill="#3F3D56"/>
<path d="M175.331 94.2905C181.253 94.2905 186.053 89.4939 186.053 83.577C186.053 77.6601 181.253 72.8635 175.331 72.8635C169.41 72.8635 164.609 77.6601 164.609 83.577C164.609 89.4939 169.41 94.2905 175.331 94.2905Z" fill="#6C63FF"/>
</g>
<defs>
<clipPath id="clip0_1055_1056">
<rect width="415" height="323" fill="white"/>
</clipPath>
</defs>
</svg>
