<svg width="26" height="30" viewBox="0 0 26 30" fill="none" xmlns="http://www.w3.org/2000/svg">
<path d="M1 22.9733V15.9427C1 11.0987 1 8.676 2.464 7.172C3.928 5.668 6.28533 5.66667 11 5.66667C15.7147 5.66667 18.0707 5.66667 19.536 7.172C21 8.676 21 11.0987 21 15.944V22.9747C21 26.0493 21 27.5867 20.0347 28.136C18.1627 29.2027 14.6547 25.6467 12.988 24.576C12.0213 23.956 11.5373 23.6453 11 23.6453C10.4627 23.6453 9.97867 23.956 9.01333 24.576C7.34667 25.6467 3.83733 29.2027 1.96667 28.136C1 27.5867 1 26.0493 1 22.9747" stroke="#707070" stroke-width="1.5" stroke-linecap="round" stroke-linejoin="round"/>
<path d="M9 1.66667H11.6667C17.952 1.66667 21.0947 1.66667 23.0467 3.61867C25 5.57333 25 8.71467 25 15V23" stroke="#707070" stroke-width="1.5" stroke-linecap="round" stroke-linejoin="round"/>
</svg>
