<svg width="16" height="15" viewBox="0 0 16 15" fill="none" xmlns="http://www.w3.org/2000/svg">
<path d="M5.33203 8.57503H10.6654M5.33203 5.2417H7.9987M4.0647 12.2417C3.19848 12.1564 2.54803 11.8959 2.11336 11.4604C1.33203 10.6797 1.33203 9.42237 1.33203 6.90837V6.57503C1.33203 4.06103 1.33203 2.8037 2.11336 2.02303C2.8947 1.24237 4.15136 1.2417 6.66536 1.2417H9.33203C11.846 1.2417 13.1034 1.2417 13.884 2.02303C14.6647 2.80437 14.6654 4.06103 14.6654 6.57503V6.90837C14.6654 9.42237 14.6654 10.6797 13.884 11.4604C13.1027 12.241 11.846 12.2417 9.33203 12.2417C8.9587 12.2497 8.6607 12.2784 8.3687 12.345C7.56936 12.529 6.82936 12.9384 6.0987 13.2944C5.0567 13.8024 4.53603 14.0564 4.20936 13.8184C3.58403 13.353 4.19536 11.9097 4.33203 11.2417" stroke="#232323" stroke-width="1.35" stroke-linecap="round" stroke-linejoin="round"/>
</svg>
