<svg width="30" height="30" viewBox="0 0 30 30" fill="none" xmlns="http://www.w3.org/2000/svg">
<path d="M28.3327 15.1187V11.3147C28.3327 8.72267 28.3327 7.42667 27.5513 6.62134C26.77 5.81601 25.514 5.81601 22.9993 5.81601H20.2273C19.0047 5.81601 18.994 5.81334 17.894 5.26134L13.4527 3.03467C11.598 2.10401 10.67 1.63867 9.68202 1.67067C8.69402 1.70267 7.79935 2.22801 6.00335 3.27734L4.36735 4.23601C3.04868 5.00667 2.39002 5.39201 2.02868 6.03334C1.66602 6.67467 1.66602 7.45601 1.66602 9.01734V19.9987C1.66602 22.0507 1.66602 23.0773 2.12202 23.648C2.42602 24.028 2.85135 24.2827 3.32202 24.368C4.02868 24.4947 4.89535 23.9893 6.62602 22.976C7.80202 22.288 8.93268 21.5733 10.3393 21.7667C11.518 21.9293 12.6127 22.6747 13.666 23.2027M9.66602 1.66934V21.7147M18.9993 5.67867V13.696" stroke="#707070" stroke-width="1.5" stroke-linecap="round" stroke-linejoin="round"/>
<path d="M25.8091 25.9L28.2691 28.3307M27.2251 22.5173C27.2253 23.7764 26.7253 24.984 25.8351 25.8744C25.3944 26.3153 24.8711 26.6651 24.2951 26.9037C23.7192 27.1424 23.1019 27.2653 22.4785 27.2653C21.2194 27.2655 20.0118 26.7655 19.1214 25.8753C18.231 24.9852 17.7306 23.7777 17.7305 22.5187C17.7305 21.2596 18.2306 20.0521 19.1209 19.1618C20.0112 18.2715 21.2187 17.7713 22.4778 17.7713C23.7369 17.7713 24.9444 18.2715 25.8347 19.1618C26.725 20.0521 27.2251 21.2583 27.2251 22.5173Z" stroke="#707070" stroke-width="1.5" stroke-linecap="round" stroke-linejoin="round"/>
</svg>
