<svg width="30" height="30" viewBox="0 0 30 30" fill="none" xmlns="http://www.w3.org/2000/svg">
<path d="M15.0033 23V19M2.13931 16.6187C1.66731 13.5547 1.43265 12.024 2.01131 10.6653C2.58998 9.30667 3.87531 8.37867 6.44465 6.52134L8.36465 5.13334C11.5606 2.82267 13.1593 1.66667 15.0046 1.66667C16.8473 1.66667 18.4446 2.82267 21.642 5.13334L23.562 6.52134C26.1313 8.37867 27.4153 9.308 27.9953 10.6653C28.574 12.024 28.3393 13.5547 27.8686 16.6173L27.4673 19.2307C26.8006 23.572 26.466 25.7427 24.9086 27.0387C23.3513 28.3347 21.0753 28.3333 16.5233 28.3333H13.4833C8.92998 28.3333 6.65398 28.3333 5.09665 27.0387C3.53931 25.7427 3.20598 23.572 2.53931 19.2293L2.13931 16.6187Z" stroke="#707070" stroke-width="1.5" stroke-linecap="round" stroke-linejoin="round"/>
</svg>
