<svg width="12" height="13" viewBox="0 0 12 13" fill="none" xmlns="http://www.w3.org/2000/svg">
<path d="M1.16602 9.16663L2.99681 6.83775C3.51595 6.17737 4.50903 6.15576 5.05641 6.79294L6.66602 8.66663M5.27605 7.04861C5.96748 6.16907 6.93091 4.92299 6.99359 4.84192L7.00024 4.8334C7.52032 4.17728 8.51024 4.15716 9.05641 4.79294L10.666 6.66663M2.49935 1.66663H9.49935C10.2357 1.66663 10.8327 2.26358 10.8327 2.99996V9.99996C10.8327 10.7363 10.2357 11.3333 9.49935 11.3333H2.49935C1.76297 11.3333 1.16602 10.7363 1.16602 9.99996V2.99996C1.16602 2.26358 1.76297 1.66663 2.49935 1.66663Z" stroke="#AAAAAA" stroke-width="1.5" stroke-linecap="round" stroke-linejoin="round"/>
</svg>
