<svg width="28" height="30" viewBox="0 0 28 30" fill="none" xmlns="http://www.w3.org/2000/svg">
<path d="M10.0007 27C11.062 27.8293 12.4647 28.3333 14.0007 28.3333C15.5367 28.3333 16.9393 27.8293 18.0007 27M1.37399 18.192C1.08999 19.996 2.35799 21.248 3.90999 21.872C9.86066 24.2653 18.1407 24.2653 24.0913 21.872C25.6433 21.248 26.9113 19.996 26.6273 18.192C26.454 17.0827 25.5913 16.16 24.9527 15.2587C24.1167 14.0627 24.034 12.76 24.0327 11.372C24.034 6.01333 19.5433 1.66667 14.0007 1.66667C8.45799 1.66667 3.96732 6.01333 3.96732 11.3733C3.96732 12.76 3.88466 14.064 3.04732 15.2587C2.40999 16.16 1.54866 17.0827 1.37399 18.192Z" stroke="#707070" stroke-width="1.5" stroke-linecap="round" stroke-linejoin="round"/>
</svg>
