<svg width="26" height="30" viewBox="0 0 26 30" fill="none" xmlns="http://www.w3.org/2000/svg">
<path d="M5.77062 19.6427C3.88395 20.7653 -1.06272 23.0587 1.95062 25.9293C3.42128 27.3307 5.05995 28.3333 7.11995 28.3333H18.8773C20.9386 28.3333 22.5773 27.3307 24.0479 25.9293C27.0613 23.0587 22.1146 20.7653 20.2279 19.6427C18.0383 18.3491 15.5418 17.6668 12.9986 17.6668C10.4555 17.6668 7.96023 18.3491 5.77062 19.6427ZM18.9999 7.66667C18.9999 9.25797 18.3678 10.7841 17.2426 11.9093C16.1174 13.0345 14.5912 13.6667 12.9999 13.6667C11.4087 13.6667 9.88253 13.0345 8.75731 11.9093C7.63209 10.7841 6.99995 9.25797 6.99995 7.66667C6.99995 6.07537 7.63209 4.54925 8.75731 3.42403C9.88253 2.29881 11.4087 1.66667 12.9999 1.66667C14.5912 1.66667 16.1174 2.29881 17.2426 3.42403C18.3678 4.54925 18.9999 6.07537 18.9999 7.66667Z" stroke="#707070" stroke-width="1.5" stroke-linecap="round" stroke-linejoin="round"/>
</svg>
