<svg width="14" height="15" viewBox="0 0 14 15" fill="none" xmlns="http://www.w3.org/2000/svg">
<path d="M6.4 1.5752C3.96667 1.57986 2.69333 1.6392 1.87867 2.45386C1 3.33253 1 4.74653 1 7.5752C1 10.4039 1 11.8179 1.87867 12.6965C2.75733 13.5752 4.172 13.5752 7 13.5752C9.828 13.5752 11.2427 13.5752 12.122 12.6965C12.9353 11.8825 12.9953 10.6079 13 8.1752" stroke="#232323" stroke-width="1.35" stroke-linecap="round" stroke-linejoin="round"/>
<path d="M13.0007 3.59174L12.334 3.59041C9.84265 3.58374 8.59732 3.58041 7.72198 4.21041C7.43065 4.41907 7.17532 4.67374 6.96532 4.96374C6.33398 5.83907 6.33398 7.08441 6.33398 9.57507M13.0007 3.59174C13.0021 3.47601 12.9605 3.36387 12.884 3.27707C12.374 2.67307 11.048 1.57507 11.048 1.57507M13.0007 3.59174C12.9945 3.69584 12.9537 3.79489 12.8847 3.87307C12.374 4.47707 11.0473 5.57507 11.0473 5.57507" stroke="#232323" stroke-linecap="round" stroke-linejoin="round"/>
</svg>
