<svg width="16" height="13" viewBox="0 0 16 13" fill="none" xmlns="http://www.w3.org/2000/svg">
<path d="M1.33203 6.24196C1.33203 6.59559 1.47251 6.93472 1.72256 7.18477C1.9726 7.43482 2.31174 7.5753 2.66536 7.5753C3.1958 7.5753 3.70451 7.36458 4.07958 6.98951C4.45465 6.61444 4.66536 6.10573 4.66536 5.5753V2.90863C4.66536 2.3782 4.45465 1.86949 4.07958 1.49442C3.70451 1.11934 3.1958 0.90863 2.66536 0.90863C2.31174 0.90863 1.9726 1.04911 1.72256 1.29915C1.47251 1.5492 1.33203 1.88834 1.33203 2.24196V6.24196ZM10.318 9.3713L10.14 8.79796C9.9947 8.32796 9.92203 8.0933 9.97803 7.9073C10.0241 7.75583 10.1236 7.62625 10.258 7.54263C10.4254 7.4373 10.678 7.4373 11.1847 7.4373H11.454C13.1674 7.4373 14.024 7.4373 14.4287 6.93063C14.4749 6.87241 14.516 6.81085 14.552 6.74596C14.8634 6.18063 14.5094 5.41863 13.8014 3.89463C13.152 2.49596 12.8267 1.79663 12.224 1.3853C12.1656 1.34514 12.1055 1.30733 12.044 1.27196C11.4094 0.90863 10.6227 0.90863 9.04936 0.90863H8.7087C6.80203 0.90863 5.84936 0.90863 5.25736 1.48196C4.66536 2.05663 4.66536 2.97996 4.66536 4.82663V5.47596C4.66536 6.44596 4.66536 6.9313 4.83736 7.37596C5.01003 7.81996 5.33936 8.18463 5.99936 8.9153L8.7267 11.9353C8.79536 12.0113 8.82936 12.0486 8.86003 12.0753C8.9964 12.1929 9.17338 12.2523 9.35307 12.241C9.53276 12.2297 9.70086 12.1484 9.82136 12.0146C9.84803 11.9846 9.8767 11.9426 9.9347 11.8586C9.99497 11.7731 10.053 11.6859 10.1087 11.5973C10.283 11.3117 10.3991 10.9944 10.4501 10.6637C10.5011 10.333 10.4862 9.9955 10.406 9.67063C10.3796 9.57024 10.3503 9.46997 10.318 9.3713Z" stroke="#232323" stroke-width="1.35" stroke-linecap="round" stroke-linejoin="round"/>
</svg>
