<svg width="16" height="13" viewBox="0 0 16 13" fill="none" xmlns="http://www.w3.org/2000/svg">
<path d="M1.33203 6.90837C1.33203 6.55475 1.47251 6.21561 1.72256 5.96556C1.9726 5.71551 2.31174 5.57503 2.66536 5.57503C3.1958 5.57503 3.70451 5.78575 4.07958 6.16082C4.45465 6.53589 4.66536 7.0446 4.66536 7.57503V10.2417C4.66536 10.7721 4.45465 11.2808 4.07958 11.6559C3.70451 12.031 3.1958 12.2417 2.66536 12.2417C2.31174 12.2417 1.9726 12.1012 1.72256 11.8512C1.47251 11.6011 1.33203 11.262 1.33203 10.9084V6.90837ZM10.318 3.77903L10.14 4.35237C9.9947 4.82237 9.92203 5.05703 9.97803 5.24303C10.0252 5.39395 10.1244 5.52319 10.258 5.6077C10.4254 5.71303 10.678 5.71303 11.1847 5.71303H11.454C13.1674 5.71303 14.024 5.71303 14.4287 6.2197C14.4749 6.27792 14.516 6.33948 14.552 6.40437C14.8634 6.9697 14.5094 7.7317 13.8014 9.2557C13.152 10.6544 12.8267 11.3537 12.224 11.765C12.1654 11.805 12.1054 11.8428 12.044 11.8784C11.4094 12.2417 10.6227 12.2417 9.04936 12.2417H8.7087C6.80203 12.2417 5.84936 12.2417 5.25736 11.6684C4.66536 11.0944 4.66536 10.171 4.66536 8.32437V7.67503C4.66536 6.70503 4.66536 6.2197 4.83736 5.77503C5.01003 5.33103 5.33936 4.96637 5.99936 4.2357L8.7267 1.2157C8.79536 1.1397 8.82936 1.10237 8.86003 1.0757C8.9964 0.958141 9.17338 0.898659 9.35307 0.909999C9.53276 0.921338 9.70086 1.0026 9.82136 1.13637C9.84803 1.16637 9.8767 1.20837 9.9347 1.29237C10.0247 1.42303 10.0694 1.48837 10.1087 1.5537C10.4607 2.13437 10.5667 2.82437 10.406 3.48037C10.388 3.55303 10.3647 3.62837 10.318 3.77903Z" stroke="#232323" stroke-width="1.35" stroke-linecap="round" stroke-linejoin="round"/>
</svg>
